<svg width="555" height="262" viewBox="0 0 555 262" fill="none" xmlns="http://www.w3.org/2000/svg">
<rect x="0.5" y="0.5" width="554" height="261" rx="42.5" fill="url(#paint0_linear)" stroke="#979797"/>
<g opacity="0.6">
<path d="M128.47 194.333C128.47 194.333 128.516 194.333 128.47 194.333L128.562 194.47L124.765 185.275L124.627 185L119 190.399L119.458 191.451L122.477 198.634C122.02 198.496 121.471 198.634 120.922 199.045C119.961 199.777 119.549 201.104 119.915 202.065C120.327 203.026 121.425 203.209 122.386 202.522C123.301 201.79 123.758 200.509 123.438 199.549L123.392 199.503V199.457V199.411L120.281 192.091L125.085 187.288L127.738 193.51C127.281 193.372 126.732 193.51 126.229 193.921C125.268 194.653 124.856 195.98 125.222 196.941C125.634 197.902 126.64 197.993 127.601 197.261C128.516 196.529 129.019 195.34 128.562 194.196L128.47 194.333ZM120.052 191.542L119.824 191.039L124.627 186.281L124.81 186.739L120.052 191.542Z" fill="white"/>
<path d="M458.611 58.425C458.509 57.6114 457.746 57.052 456.679 57.052C456.068 57.052 455.458 57.2046 454.899 57.5605C454.492 57.8148 454.136 58.1708 453.831 58.4759L456.679 48H455.916L452.305 61.934V61.8831C452.305 61.9848 452.153 62.0357 452.153 62.0865L452 62.4425L452.356 62.5951C452.356 62.5951 452.458 62.6968 452.661 62.6968C453.322 62.6968 454.594 62.4934 455.712 62.0865C457.543 61.4763 458.764 59.7473 458.611 58.425ZM455.661 61.2729C454.746 61.6288 453.576 61.6797 453.017 61.6797C453.526 59.849 454.238 58.781 455.153 58.2216C455.56 58.0182 456.017 57.8657 456.424 57.8657C457.136 57.8657 457.645 58.2216 457.696 58.7302C457.899 59.6455 456.933 60.7643 455.661 61.2729Z" fill="white"/>
<path d="M284.102 166.897C283.797 169.999 281.153 171.321 281.102 171.372L281 171.423L281.458 172.084L296.154 167.1C295.9 167.863 296.053 168.83 296.663 169.796C297.782 171.525 300.07 172.44 301.748 171.881C303.427 171.321 303.783 169.541 302.613 167.812C300.579 164.71 297.273 165.524 297.273 165.524L283.899 170.152C284.356 169.491 284.814 168.575 285.119 166.897C285.679 163.592 289.238 164.71 289.238 164.71C287.306 163.337 284.407 163.897 284.102 166.897Z" fill="white"/>
<path d="M293.368 20.814C290.368 20.0004 289.452 17.1526 289.452 17.1526L289.401 17L288.689 17.3051L291.181 32.6122C290.469 32.2053 289.503 32.2562 288.435 32.7139C286.554 33.5275 285.231 35.6634 285.537 37.3924C285.791 39.1214 287.52 39.7826 289.452 38.918C292.809 37.4433 292.605 34.0361 292.605 34.0361L290.215 20.1021C290.774 20.6615 291.639 21.2717 293.215 21.8311C296.368 22.9499 294.69 26.2554 294.69 26.2554C296.318 24.5772 296.267 21.6277 293.368 20.814Z" fill="white"/>
<path d="M180.137 43.0683L180.391 42.0512H177.849L178.662 39H177.645L176.832 42.0512H173.78L174.34 40.0171H173.323L172.763 42.0512H170.22L169.966 43.0683H172.509L171.695 46.1195H169.153L169 46.6281H171.543L170.627 50.1879H171.644L172.56 46.6281H175.611L174.95 49.1708H175.967L176.628 46.6281H179.171L179.323 46.1195H176.781L177.594 43.0683H180.137ZM175.814 46.1195H172.763L173.577 43.0683H176.628L175.814 46.1195Z" fill="white"/>
<path d="M483.791 104.883C483.791 104.883 483.791 104.934 483.791 104.883C483.791 104.934 483.74 105.086 483.74 105.086L488.825 95.2713H488.876L489.029 94.9154L480.333 94L479.773 95.1696L475.858 102.899C475.603 102.442 475.146 102.035 474.434 101.882C473.162 101.577 471.688 102.187 471.179 103.205C470.671 104.222 471.281 105.34 472.552 105.595C473.824 105.849 475.247 105.29 475.807 104.374H475.756V104.323L475.807 104.272V104.222L479.824 96.3393L487.351 96.9495L483.943 103.611C483.689 103.154 483.232 102.747 482.52 102.594C481.248 102.289 479.773 102.899 479.265 103.917C478.756 104.934 479.417 105.849 480.689 106.154C481.96 106.408 483.333 106.256 483.994 104.73L483.791 104.883ZM480.129 95.7799L480.384 95.2205L487.859 95.8816L487.605 96.3901L480.129 95.7799Z" fill="white"/>
<path d="M367.791 39.8827C367.791 39.8827 367.791 39.9336 367.791 39.8827C367.791 39.9336 367.74 40.0862 367.74 40.0862L372.825 30.2713H372.876L373.029 29.9154L364.333 29L363.773 30.1696L359.858 37.8994C359.603 37.4417 359.146 37.0349 358.434 36.8824C357.162 36.5772 355.688 37.1875 355.179 38.2046C354.671 39.2216 355.281 40.3404 356.552 40.5947C357.824 40.849 359.247 40.2896 359.807 39.3742H359.756V39.3233L359.807 39.2725V39.2216L363.824 31.3393L371.351 31.9495L367.943 38.6114C367.689 38.1537 367.232 37.7469 366.52 37.5943C365.248 37.2892 363.773 37.8994 363.265 38.9165C362.756 39.9336 363.417 40.849 364.689 41.1541C365.96 41.4084 367.333 41.2558 367.994 39.7302L367.791 39.8827ZM364.129 30.7799L364.384 30.2205L371.859 30.8816L371.605 31.3901L364.129 30.7799Z" fill="white"/>
<g filter="url(#filter0_d)">
<path d="M82.4778 71.8657C82.0211 71.0157 81.5137 70.1656 80.854 69.3929C80.2451 68.6201 79.5347 67.886 78.7229 67.2292C75.6277 64.6018 71.4668 62.8245 67.1031 62.3994C65.9868 62.2835 64.9212 62.2835 63.8556 62.3222C62.79 62.3994 61.7245 62.554 60.7096 62.7858C60.4559 62.8245 60.1515 62.9017 59.8978 62.979C59.0859 60.5062 58.3248 57.9947 57.5637 55.4446C60.1515 52.74 62.5871 49.9581 64.6167 46.7125C65.936 44.5874 67.1031 42.2691 67.5598 39.7577C67.8135 38.5213 67.9149 37.2849 67.8642 36.0484C67.8642 35.4302 67.8135 34.8507 67.712 34.2325L67.6105 33.4211L67.4583 32.5324C67.0523 30.2141 66.2405 27.9345 65.0734 25.7322C63.9064 23.5298 62.3334 21.4433 60.1007 19.5887C59.5426 19.1251 58.9337 18.7001 58.2233 18.3137C57.5129 17.9273 56.7011 17.5409 55.737 17.2705C55.2803 17.1546 54.7221 17.0386 54.1133 17C53.8088 17 53.5044 17 53.1999 17.0386C53.0984 17.0386 53.0984 17.0386 52.8955 17.0773L52.7432 17.1159C52.591 17.1546 52.2866 17.1932 52.1851 17.2318C51.5254 17.425 50.9673 17.7341 50.5613 18.0819C50.1554 18.4296 49.851 18.7387 49.648 19.0864C48.7854 20.4001 48.5824 21.5979 48.3795 22.757C48.2272 23.9162 48.1765 25.0367 48.2272 26.1572C48.3795 30.6005 49.1913 34.812 50.1554 38.9849C50.9673 42.6555 51.9314 46.2488 52.9969 49.7649C51.5762 51.2717 50.1554 52.8173 48.7346 54.3241C47.9228 55.2128 47.0602 56.0242 46.2483 56.9129C45.3857 57.8402 44.5738 58.8061 43.8127 59.7721C42.2905 61.7426 41.0219 63.829 40.0578 65.9541C39.0938 68.1178 38.4341 70.3202 38.1297 72.5998C37.876 74.8408 37.9774 77.1204 38.5863 79.3228C38.7386 79.8637 38.9415 80.4047 39.1445 80.9456C39.3982 81.4865 39.6012 82.0275 39.9056 82.5297C40.4638 83.573 41.1742 84.5389 41.986 85.4662C43.6098 87.3208 45.7916 88.8277 48.1765 89.9096L49.0898 90.296L50.0539 90.6437C50.6628 90.8755 51.3732 91.0687 51.9821 91.2619L52.8955 91.4551L53.4029 91.571L53.9103 91.6483L54.8744 91.8415L55.8385 91.996C58.4263 92.3438 61.0648 92.421 63.6527 92.1892C65.4286 92.0346 67.1538 91.7255 68.8283 91.3005C69.1835 92.1892 69.5387 93.0779 69.8939 93.9279C70.5028 95.4734 71.0609 97.0189 71.5176 98.5258C71.9743 100.033 72.3802 101.501 72.6339 102.969C72.7354 103.703 72.8369 104.399 72.8369 105.094C72.8369 105.249 72.8369 105.442 72.8369 105.597L72.7861 106.137C72.7354 106.447 72.6846 106.794 72.5832 107.103C72.228 108.417 71.5176 109.576 70.5028 110.542C69.4879 111.508 68.2701 112.204 66.9001 112.629L66.3927 112.783L66.2405 112.822H66.1897H66.139L65.8345 112.899C65.4793 112.976 65.1749 113.015 64.8197 113.092C64.1093 113.17 63.4497 113.208 62.79 113.17C62.1304 113.131 61.4708 113.054 60.8619 112.899C60.253 112.745 59.7456 112.551 59.2381 112.32C58.2741 111.856 57.5637 111.199 57.1577 110.542C56.9548 110.194 56.8025 109.847 56.7011 109.538C56.6503 109.383 56.5996 109.19 56.5996 109.035V108.765C56.6503 108.842 56.5996 108.765 56.5996 108.765V108.726V108.649V108.494C56.5996 108.263 56.5996 107.915 56.7011 107.644C56.7518 107.374 56.8533 107.103 57.0055 106.872C57.1577 106.562 57.3607 106.331 57.5637 106.137C58.5278 106.524 59.6948 106.717 60.9126 106.562C63.9064 106.215 65.936 104.128 65.5301 101.849C65.0734 99.569 62.3334 97.9462 59.3396 98.2167C57.2085 98.4099 55.1281 99.144 53.4029 100.96C52.0328 102.428 51.1195 104.399 51.1702 106.369C51.1702 106.872 51.221 107.374 51.3732 107.876C51.5254 108.378 51.6269 108.881 51.8806 109.46C52.3373 110.388 53.0984 111.431 54.1133 112.281C55.1281 113.17 56.4474 113.904 57.9696 114.367C58.7307 114.599 59.4918 114.792 60.3037 114.87C61.1156 114.986 61.9274 115.024 62.79 114.986C63.6019 114.947 64.4645 114.87 65.3271 114.715C65.7331 114.638 66.1897 114.522 66.5957 114.406L66.9001 114.329L67.0523 114.29L67.2046 114.251L67.8135 114.058C68.6253 113.749 69.3864 113.363 70.0968 112.938C70.8072 112.474 71.4161 111.972 71.9743 111.392C73.0398 110.233 73.8517 108.842 74.1562 107.374C74.2576 107.026 74.3084 106.64 74.3084 106.253V105.712C74.3084 105.481 74.3084 105.326 74.3084 105.133C74.2576 104.399 74.2069 103.626 74.0547 102.892C73.4965 99.8781 72.4309 96.8644 71.2639 93.7347C70.9087 92.846 70.6042 91.9187 70.2491 91.0301C72.8876 90.2187 75.3232 89.0982 77.4543 87.6686C79.3318 86.3935 80.9048 84.848 82.0211 83.1093C82.5792 82.2593 83.0359 81.332 83.3911 80.4047C83.5433 79.941 83.6956 79.4774 83.797 78.9751C83.8478 78.7432 83.8985 78.4728 83.8985 78.2023C83.9493 77.9318 83.9493 77.6614 83.9493 77.5068L84 76.8886L83.9493 76.0772C83.8985 75.5749 83.8478 75.1113 83.7463 74.6476C83.2389 73.643 82.9344 72.7157 82.4778 71.8657ZM53.6058 20.2842C53.6566 20.2842 53.6058 20.2842 53.6058 20.2842C53.6058 20.2842 53.6566 20.2842 53.6058 20.2842ZM53.1999 38.5985C52.794 36.5507 52.4895 34.4643 52.2358 32.3779C51.9821 30.2914 51.8299 28.205 51.8806 26.1572C51.9314 25.1139 51.9821 24.1094 52.1851 23.1434C52.388 22.1775 52.6925 21.2115 53.1492 20.632C53.3014 20.4388 53.4536 20.3229 53.5044 20.2842H53.6058C53.4536 20.3229 53.6058 20.2842 53.5551 20.2842C53.6058 20.2842 53.6566 20.2842 53.7073 20.2842C53.8088 20.2842 53.961 20.3229 54.164 20.4001C54.9251 20.632 55.7877 21.2502 56.4981 21.9456C57.9696 23.4139 58.9337 25.2685 59.5933 27.1617C60.253 29.055 60.6082 31.0642 60.7604 33.0733L60.8111 33.8075L60.8619 34.6188C60.8619 35.0825 60.8619 35.5848 60.8619 36.0484C60.8111 37.0144 60.6589 37.9031 60.4052 38.7917C59.8978 40.5691 58.883 42.3078 57.6652 44.0465C56.904 45.0897 56.0414 46.0943 55.1788 47.1375C54.4684 44.3556 53.8088 41.4964 53.1999 38.5985ZM63.196 90.4119C62.0289 90.5278 60.8619 90.5278 59.6948 90.4891C58.5278 90.4505 57.3607 90.3346 56.1937 90.1028L55.331 89.9482L54.4684 89.755L54.0625 89.6391L53.6566 89.5232L52.7432 89.2527C51.7284 88.905 50.6628 88.5186 49.6987 87.9777C48.7346 87.4368 47.872 86.8572 47.1109 86.1617C46.3498 85.4662 45.6902 84.7707 45.132 83.9593C44.5738 83.1479 44.1679 82.3365 43.8635 81.4479C43.7112 81.0229 43.6098 80.5592 43.4575 80.1342C43.4068 79.6705 43.2546 79.2455 43.2546 78.7819C42.8994 75.1113 44.2187 71.3634 46.2991 67.886C47.3646 66.1473 48.6839 64.4859 50.1047 62.8631C50.8151 62.0517 51.5762 61.2789 52.388 60.5062C53.2506 59.6562 54.1132 58.8448 54.9759 57.9947C55.0773 57.8788 55.1788 57.7629 55.2803 57.6856C55.9399 59.7721 56.6503 61.8585 57.4114 63.8677C57.31 63.9063 57.2592 63.945 57.1577 63.9836L56.5488 64.2541C56.1936 64.4472 55.7877 64.6404 55.4325 64.8723C52.591 66.5723 50.6628 68.8133 49.8002 70.977C48.9376 73.1408 48.9376 75.1499 49.445 76.7727C49.9524 78.4341 50.8658 79.7092 51.8806 80.5592C52.8955 81.4092 53.9103 81.8343 54.6207 82.0274C54.7729 82.0661 54.9251 82.1047 55.0773 82.1434C55.2296 82.182 55.331 82.182 55.4325 82.182C55.6355 82.2206 55.6862 82.2206 55.6862 82.2206C55.6862 82.2206 55.6355 82.182 55.4833 82.1047C55.331 82.0275 55.1281 81.8729 54.8744 81.7183C54.4177 81.3706 53.8088 80.7524 53.4029 79.8637C52.9969 79.0137 52.7432 77.8546 52.8447 76.5795C52.9462 75.3045 53.5043 73.8362 54.5192 72.4839C55.534 71.1316 57.107 69.8565 59.1874 68.9292C59.2381 68.9292 59.2381 68.8906 59.2889 68.8906C59.9485 70.5907 60.6082 72.2907 61.2678 73.9521C62.6886 77.5068 64.2108 80.9842 65.6316 84.3071C66.342 85.9685 67.0523 87.6299 67.7627 89.2141C67.8135 89.2914 67.8135 89.4073 67.8642 89.4846C66.3927 89.9482 64.8197 90.2573 63.196 90.4119ZM78.0125 77.5841C78.4692 80.1728 77.4036 83.3025 74.7143 85.7367C73.2935 87.0504 71.4161 88.1709 69.2342 88.9823C67.3568 84.0366 65.3779 78.8591 63.4497 73.4112C62.8408 71.6725 62.2319 69.8565 61.623 68.0792C61.623 68.0792 61.623 68.0792 61.6737 68.0792C61.9782 68.0406 62.2319 67.9633 62.5363 67.9246C63.6527 67.7315 64.8704 67.7315 66.139 67.886C68.6253 68.2338 71.3146 69.3156 73.598 70.977C74.7143 71.8271 75.7291 72.793 76.541 73.9135C76.9469 74.4544 77.3021 75.034 77.5558 75.6522C77.7081 75.9613 77.8095 76.2704 77.911 76.5795L77.9618 76.8113L78.0125 76.9273V77.0045C78.0125 77.0818 78.0125 76.9659 78.0125 77.0045V77.5841Z" fill="white"/>
<path d="M409.665 69.0679C411.241 69.0679 412.309 70.085 411.953 71.3055C411.648 72.526 410.072 73.5431 408.495 73.5431C406.919 73.5431 405.851 72.526 406.207 71.3055C406.512 70.0342 408.088 69.0679 409.665 69.0679ZM409.919 68C407.732 68 405.597 69.4748 405.088 71.3055C404.63 73.1362 406.003 74.611 408.139 74.611C410.326 74.611 412.462 73.1362 412.97 71.3055C413.479 69.4748 412.106 68 409.919 68Z" fill="white"/>
<path d="M134.145 82.2721C130.483 79.2717 130.941 75 130.941 75H130.992H129.771L123.872 97.5791C123.11 96.6129 121.737 95.901 120.058 95.901C116.956 95.901 113.854 97.986 113.142 100.58C112.43 103.173 114.464 105.055 117.617 105.055C123.211 105.055 124.991 100.173 124.991 100.173L130.229 79.3226C130.636 80.4922 131.45 81.8144 133.331 83.5943C137.044 87.0524 132.67 90.6122 132.67 90.6122C135.925 89.2899 137.654 85.1199 134.145 82.2721Z" fill="white"/>
<path d="M417.78 155.61C415.339 156.526 413.407 155.051 413.407 155.051L413.356 155L413 155.559L422.103 164.713C421.442 164.815 420.73 165.273 420.272 166.086C419.408 167.561 419.509 169.646 420.577 170.714C421.645 171.782 423.069 171.324 423.984 169.849C425.561 167.205 423.73 164.967 423.73 164.967L415.288 156.627C415.95 156.729 416.814 156.729 418.187 156.322C420.882 155.509 421.34 158.611 421.34 158.611C421.594 156.729 420.12 154.746 417.78 155.61Z" fill="white"/>
<path d="M524.78 105.61C522.339 106.526 520.407 105.051 520.407 105.051L520.356 105L520 105.559L529.103 114.713C528.442 114.815 527.73 115.273 527.272 116.086C526.408 117.561 526.509 119.646 527.577 120.714C528.645 121.782 530.069 121.324 530.984 119.849C532.561 117.205 530.73 114.967 530.73 114.967L522.288 106.627C522.95 106.729 523.814 106.729 525.187 106.322C527.882 105.509 528.34 108.611 528.34 108.611C528.594 106.729 527.12 104.746 524.78 105.61Z" fill="white"/>
<path d="M398.408 187.957C395.509 190.245 392.305 189.126 392.254 189.126L392.203 189.075L392 189.991L408.273 198.28C407.409 198.687 406.697 199.653 406.392 200.924C405.883 203.314 406.951 206.01 408.833 206.976C410.714 207.942 412.494 206.722 413.003 204.332C413.969 200.06 410.562 197.924 410.562 197.924L395.611 190.448C396.577 190.347 397.746 189.94 399.374 188.821C402.628 186.584 404.612 190.499 404.612 190.499C404.052 187.753 401.205 185.719 398.408 187.957Z" fill="white"/>
<path d="M239.167 180.595C241.049 179.222 241.964 176.526 239.625 174.645C236.777 172.356 237.438 169.051 237.438 169H235.964L231.387 186.494C230.777 185.731 229.709 185.222 228.437 185.222C225.996 185.222 223.606 186.85 223.098 188.833C222.589 190.867 224.115 192.291 226.556 192.291C231.183 192.291 232.201 188.528 232.201 188.528L233.726 182.12C234.082 182.985 234.692 184.053 236.116 185.324C238.964 188.019 235.659 190.765 235.659 190.765C237.794 189.85 239.117 187.46 237.896 185.375C239.422 184.256 240.185 182.324 239.167 180.595ZM238.608 175.713C240.49 177.442 239.727 179.272 238.964 180.29C238.761 179.984 238.456 179.73 238.15 179.425C235.608 177.34 235.709 174.391 235.76 173.78L236.116 172.407C236.421 173.323 237.133 174.34 238.608 175.713ZM237.693 185.121C237.489 184.816 237.184 184.561 236.879 184.256C234.438 182.273 234.438 179.476 234.489 178.713L234.845 177.238C235.15 178.103 235.913 179.171 237.337 180.493C239.168 182.273 238.405 184.053 237.693 185.121Z" fill="white"/>
<path d="M509.633 31.5268C504.497 27.3567 505.107 21.2034 505.107 21.1526L505.158 21H503.581L495.292 52.8854C494.224 51.5123 492.292 50.6478 489.902 50.6478C485.528 50.6478 481.155 53.5974 480.189 57.2588C479.222 60.9203 482.07 63.5647 486.444 63.4122C493.512 63.2087 495.648 56.4452 495.648 56.4452L501.242 36.307C501.852 37.8835 503.276 39.8159 505.87 42.2061C511.057 47.0372 505.158 52.0717 505.158 52.0717C509.023 50.3936 511.413 46.071 509.175 42.3078C512.684 39.7651 513.956 34.9848 509.633 31.5268ZM507.548 40.2228C502.92 36.4596 503.124 31.1199 503.225 30.052L503.886 27.5093C504.497 29.1366 505.768 31.0182 508.412 33.4592C511.82 36.6121 510.447 39.8668 509.074 41.7484C508.667 41.2399 508.158 40.7313 507.548 40.2228Z" fill="white"/>
<path d="M134.611 44.3905C131.915 42.2038 132.221 39 132.221 39H131.407L127.033 55.6801C126.474 54.9681 125.457 54.4596 124.186 54.4596C121.897 54.4596 119.609 55.9852 119.1 57.9177C118.592 59.8501 120.067 61.2232 122.406 61.1723C126.118 61.0706 127.237 57.5108 127.237 57.5108L130.186 46.9332C130.492 47.7977 131.254 48.764 132.627 50.0353C135.374 52.578 132.271 55.2224 132.271 55.2224C134.306 54.3579 135.577 52.0695 134.407 50.0862C136.187 48.7131 136.848 46.2213 134.611 44.3905ZM133.492 48.9674C131.051 46.9841 131.153 44.1871 131.204 43.6277L131.559 42.3055C131.865 43.17 132.577 44.1362 133.95 45.4584C135.73 47.1366 135.018 48.8148 134.306 49.8319C134.051 49.5268 133.797 49.2216 133.492 48.9674Z" fill="white"/>
<path d="M336.675 156.374C335.861 156.018 334.996 155.916 334.234 156.069C334.132 156.069 334.03 156.12 333.928 156.12L333.776 156.17H333.674H333.623L333.471 156.221L333.318 156.272C333.217 156.323 333.115 156.374 333.013 156.425C332.657 156.628 332.301 156.882 331.996 157.137C331.386 157.696 330.928 158.357 330.623 158.967C330.318 159.578 330.165 160.188 330.064 160.696C329.962 161.205 330.013 161.561 330.013 161.815C330.013 161.968 330.013 162.019 330.064 162.12V162.171C330.064 162.476 330.114 162.781 330.216 163.086C330.623 164.205 331.742 164.612 332.657 163.951C333.572 163.29 334.03 161.866 333.623 160.747C333.217 159.679 332.199 159.272 331.335 159.832C331.386 159.781 331.386 159.73 331.437 159.679C331.742 159.222 332.098 158.713 332.555 158.357C333.013 158.001 333.572 157.747 334.234 157.696C334.844 157.594 335.505 157.696 336.064 158.001C336.369 158.154 336.675 158.357 336.929 158.56C337.183 158.815 337.437 159.069 337.692 159.425C338.149 160.086 338.505 160.849 338.76 161.713C338.861 162.171 338.963 162.578 339.014 163.036C339.065 163.493 339.116 163.951 339.065 164.409C339.065 164.866 339.014 165.324 338.912 165.782C338.81 166.239 338.709 166.697 338.607 167.155C338.353 168.019 337.946 168.833 337.539 169.596C337.132 170.308 336.624 170.969 336.166 171.477C335.708 171.986 335.2 172.444 334.793 172.8C334.335 173.156 333.928 173.41 333.623 173.613C333.267 173.817 333.013 173.918 332.81 174.02C332.606 174.122 332.505 174.122 332.505 174.122C332.505 174.122 332.606 174.122 332.81 174.071C333.013 174.02 333.267 173.969 333.674 173.817C334.03 173.664 334.488 173.512 334.946 173.206C335.403 172.901 335.963 172.545 336.522 172.037C337.081 171.528 337.641 170.918 338.149 170.155C338.404 169.799 338.658 169.392 338.861 168.935C338.963 168.731 339.065 168.477 339.217 168.274C339.319 168.019 339.421 167.816 339.522 167.562C339.878 166.595 340.133 165.477 340.234 164.358C340.285 163.798 340.234 163.239 340.234 162.68C340.183 162.12 340.082 161.561 339.98 161.052C339.726 159.984 339.319 159.018 338.76 158.205C338.2 157.391 337.488 156.73 336.675 156.374Z" fill="white"/>
<path d="M356.624 155.736C357.184 155.329 357.438 154.414 357.184 153.702C356.93 152.99 356.218 152.787 355.658 153.244C355.099 153.651 354.845 154.567 355.099 155.279C355.353 155.94 356.014 156.194 356.624 155.736Z" fill="white"/>
<path d="M357.234 157.313C356.675 157.72 356.421 158.635 356.675 159.347C356.929 160.059 357.641 160.262 358.201 159.805C358.76 159.398 359.014 158.483 358.76 157.771C358.506 157.11 357.794 156.906 357.234 157.313Z" fill="white"/>
<path d="M117.557 154.288C117.557 154.288 116.896 155.865 115.523 157.34C115.523 157.136 115.523 156.882 115.472 156.679C115.218 155.611 114.201 155.153 113.286 155.661C112.319 156.17 111.811 157.492 112.065 158.56C112.065 158.611 112.116 158.713 112.116 158.764C112.167 159.069 112.319 159.323 112.523 159.526C112.777 159.781 113.438 160.289 114.709 159.425C115.981 158.509 116.896 157.391 117.506 156.424L117.303 166.493L118.269 166.341L118.524 152L117.557 154.288Z" fill="white"/>
<path d="M432.294 100.206C432.294 100.206 432.294 100.155 432.294 100.206C432.294 100.155 432.294 100.155 432.294 100.155L436.871 82.356L436.973 82L422.683 83.6782L422.123 85.814L418.563 99.5955C418.004 98.8835 417.089 98.4767 415.919 98.4767C413.732 98.4767 411.596 99.9514 411.088 101.782C410.63 103.613 412.003 105.088 414.19 105.088C416.326 105.088 418.411 103.867 419.021 101.833H419.225V101.782L423.344 85.7123L435.549 84.1867L431.938 98.0698C431.379 97.3579 430.463 96.9511 429.243 96.9511C427.056 96.9511 424.92 98.4258 424.412 100.257C423.954 102.087 425.327 103.562 427.514 103.562C429.599 103.46 431.684 102.291 432.294 100.206Z" fill="white"/>
</g>
</g>

<path d="M230.167 34.5947C232.049 33.2216 232.964 30.5264 230.625 28.6448C227.777 26.3564 228.438 23.0509 228.438 23H226.964L222.387 40.4937C221.777 39.7309 220.709 39.2224 219.437 39.2224C216.996 39.2224 214.606 40.8497 214.098 42.833C213.589 44.8672 215.115 46.2911 217.556 46.2911C222.183 46.2911 223.201 42.5279 223.201 42.5279L224.726 36.1203C225.082 36.9848 225.692 38.0528 227.116 39.3241C229.964 42.0194 226.659 44.7655 226.659 44.7655C228.794 43.8501 230.117 41.46 228.896 39.375C230.422 38.2562 231.185 36.3237 230.167 34.5947ZM229.608 29.7127C231.49 31.4418 230.727 33.2725 229.964 34.2896C229.761 33.9845 229.456 33.7302 229.15 33.4251C226.608 31.34 226.709 28.3905 226.76 27.7803L227.116 26.4072C227.421 27.3226 228.133 28.3397 229.608 29.7127ZM228.693 39.1207C228.489 38.8156 228.184 38.5613 227.879 38.2562C225.438 36.2729 225.438 33.4759 225.489 32.7131L225.845 31.2383C226.15 32.1029 226.913 33.1708 228.337 34.493C230.168 36.2729 229.405 38.0528 228.693 39.1207Z" fill="white"/>
<path d="M422.137 41.0683L422.391 40.0512H419.849L420.662 37H419.645L418.832 40.0512H415.78L416.34 38.0171H415.323L414.763 40.0512H412.22L411.966 41.0683H414.509L413.695 44.1195H411.153L411 44.6281H413.543L412.627 48.1879H413.644L414.56 44.6281H417.611L416.95 47.1708H417.967L418.628 44.6281H421.171L421.323 44.1195H418.781L419.594 41.0683H422.137ZM417.814 44.1195H414.763L415.577 41.0683H418.628L417.814 44.1195Z" fill="white"/>
<defs>

<linearGradient id="paint0_linear" x1="0" y1="0" x2="0" y2="262" gradientUnits="userSpaceOnUse">
<stop stop-color="#6FCFFA"/>
<stop offset="1" stop-color="#3CA2F3"/>
</linearGradient>
</defs>
</svg>
